# xmcd
#
# Track frame offsets: 
#        150
#        20687
#        42169
#        57463
#        71910
#        90189
#        108708
#        128277
#        140976
#        158295
#        167619
#
# Disc length: 2469 seconds
#
# Revision: 0
# Processed by: cddbd v1.5.2PL0 Copyright (c) Steve Scherf et al.
# Submitted via: ExactAudioCopy v1.0b2
#
DISCID=8e09a30b
DTITLE=Suzi Quatro - In The Spotlight
DYEAR=2011
DGENRE=Rock
TTITLE0=A Girl Like Me
TTITLE1=Whatever Love Is
TTITLE2=Spotlight
TTITLE3=Strict Machine
TTITLE4=Breaking Dishes
TTITLE5=Rosie Rose
TTITLE6=Hurt with You
TTITLE7=Hot Kiss
TTITLE8=Turn Into
TTITLE9=Hard Headed Woman
TTITLE10=Singing with Angels
EXTD=
EXTT0=
EXTT1=
EXTT2=
EXTT3=
EXTT4=
EXTT5=
EXTT6=
EXTT7=
EXTT8=
EXTT9=
EXTT10=
PLAYORDER=
